<svg id="Layer_1" data-name="Layer 1" xmlns="http://www.w3.org/2000/svg" viewBox="0 0 775.08 543.1"><defs><style>.cls-1{fill:#3b1400;}</style></defs><title>icon</title><path class="cls-1" d="M696.18,489.59s0,.83,0,2.45a40.05,40.05,0,0,1-.68,7.15c-1,6.2-4.39,15.26-11.86,24.61s-18.46,19-32.52,27.65A241.38,241.38,0,0,1,628.12,564c-8.33,4-17.31,7.71-26.8,11.25a461.48,461.48,0,0,1-62.66,18.14,655.15,655.15,0,0,1-71.78,11.63c-25.08,2.69-51.13,4.18-77.61,4.35A793.91,793.91,0,0,1,309.05,606a658.31,658.31,0,0,1-79.51-12.35c-13-2.85-25.79-6.19-38.3-10a367.29,367.29,0,0,1-36.51-13.2A242.07,242.07,0,0,1,121,553.11c-10.57-6.64-20.46-14.21-28.75-23.31a78.55,78.55,0,0,1-10.73-15,52.55,52.55,0,0,1-5.88-17.45c-.27-1.51-.31-3.05-.45-4.56l0-2.28v-.85a4.33,4.33,0,0,1,0-.49l.07-1,.13-2c.07-.71.2-1.55.3-2.31a38,38,0,0,1,.86-4.45,53.26,53.26,0,0,1,6.61-15.51c5.75-9.25,13.16-16.26,20.55-22.08a157.18,157.18,0,0,1,22.34-14.23,251,251,0,0,1,39.13-16.43c11.11-3.74,20-6,26.09-7.53,3-.79,5.38-1.28,6.95-1.65l2.39-.55-9,3.17c-5.89,2.07-14.46,5.3-25.14,9.83-5.34,2.27-11.18,4.93-17.39,8.07s-12.84,6.68-19.61,10.92a149.68,149.68,0,0,0-20.28,14.94C102.65,454.25,96.27,461,91.9,469a42.74,42.74,0,0,0-4.66,12.77,27.17,27.17,0,0,0-.46,3.26c0,.54-.12,1-.14,1.6l0,2v1s0,.41,0,0v.21l0,.43.11,1.71c.18,1.14.25,2.29.53,3.42a43,43,0,0,0,5.16,13.29,65.8,65.8,0,0,0,9.42,12.1c7.44,7.56,16.63,14.11,26.63,19.86a248.6,248.6,0,0,0,32.18,15.26c11.33,4.46,23.14,8.38,35.26,11.86s24.58,6.48,37.21,9.13a708,708,0,0,0,77.58,11.52c26.21,2.55,52.57,3.72,78.53,3.91q19.47.06,38.58-.59t37.58-2.2c24.63-2,48.38-4.94,70.67-9,11.15-2,21.91-4.31,32.27-6.76s20.29-5.14,29.71-8.07c18.8-5.92,35.66-12.6,49.75-20.11s25.42-15.77,33.23-24.11a68.68,68.68,0,0,0,9.1-12.17,45.65,45.65,0,0,0,4.42-10.4A43.51,43.51,0,0,0,696,492Z" transform="translate(-12.46 -144.27)"/><path class="cls-1" d="M633,577.22l-4.41,3.68a61.47,61.47,0,0,1-5.47,4.22c-2.25,1.54-4.84,3.42-7.86,5.27s-6.41,3.77-10.15,5.83l-5.94,3c-2.08,1-4.18,2.16-6.45,3.09a306.09,306.09,0,0,1-30.87,11.85L553.07,617l-9.26,2.6c-6.27,1.86-12.85,3.27-19.6,4.92-3.37.87-6.82,1.48-10.3,2.19l-10.59,2.11-10.87,1.84c-3.66.61-7.36,1.23-11.11,1.7L470,633.87c-3.8.54-7.65.84-11.51,1.27s-7.75.84-11.67,1.19l-11.81.86c-4,.3-7.92.58-11.91.73l-12,.52c-8,.29-16.06.3-24.11.46L375,638.72c-4-.09-7.9-.06-12-.27-8.05-.33-16.12-.6-24-1.25l-11.81-.85c-3.91-.35-7.8-.8-11.67-1.19-7.74-.73-15.35-1.75-22.83-2.81-3.74-.48-7.44-1.09-11.11-1.71l-10.87-1.83-10.59-2.11c-3.48-.72-6.94-1.32-10.3-2.19-6.74-1.66-13.33-3.07-19.6-4.92L221,617l-8.84-2.83a306.16,306.16,0,0,1-30.87-11.85c-2.27-.94-4.37-2.11-6.45-3.1l-5.94-3c-3.74-2.06-7.1-4.09-10.15-5.84s-5.57-3.71-7.82-5.25a62,62,0,0,1-5.5-4.24L141,577.22l5,2.75c3.16,2,8.23,4.1,14.48,7,3.23,1.24,6.76,2.69,10.66,4.11,4,1.24,8.17,2.82,12.77,4.18,9.21,2.71,19.62,5.57,31.17,8l8.81,1.9,9.22,1.68C239.38,608,245.9,609,252.56,610s13.57,1.87,20.59,2.8c7.07.67,14.23,1.71,21.59,2.28s14.8,1.38,22.38,1.81c3.79.24,7.59.54,11.42.74l11.55.57c7.75.49,15.48.48,23.27.8s16,.17,23.66.28c7.86-.1,15.74-.05,23.57-.28s15.64-.3,23.37-.8l11.55-.57c3.83-.2,7.63-.5,11.42-.74,7.58-.44,15-1.19,22.38-1.81,3.68-.28,7.31-.69,10.9-1.11l10.69-1.16c7-.93,13.92-1.8,20.59-2.8s13.18-2,19.41-3.23l9.22-1.69,8.81-1.9c11.55-2.42,22-5.28,31.17-8,4.6-1.37,8.78-2.95,12.77-4.19,3.89-1.43,7.42-2.88,10.66-4.12,6.21-2.84,11.27-5,14.47-7Z" transform="translate(-12.46 -144.27)"/><path class="cls-1" d="M586.5,314.75l-.18,2.36a23,23,0,0,1-1.93,6.59,35.81,35.81,0,0,1-6.58,8.91,66.91,66.91,0,0,1-11.91,9.17c-9.57,6-22.26,11.45-37.25,16.23-7.5,2.37-15.57,4.63-24.16,6.69s-17.7,3.91-27.26,5.58-19.57,3.12-30,4.3-21.2,2.2-32.33,2.88c-5.57.37-11.19.6-17,.81l-8.58.23-8.78.11c-11.73,0-23.74-.2-35.94-1-24.4-1.62-49.67-4.77-74.93-11.7-12.61-3.54-25.27-7.85-37.49-14.61a73.8,73.8,0,0,1-17.62-13,44.33,44.33,0,0,1-3.9-4.61,28.46,28.46,0,0,1-1.79-2.58l-1.61-2.84c-.52-1-.91-2.07-1.35-3.11-.21-.53-.43-1.05-.61-1.6l-.44-1.71a21.61,21.61,0,0,1-.69-3.49l-.16-1.8-.06-.9,0-.45a5.18,5.18,0,0,1,0-1.2l.19-2.41.05-.6.18-1c.13-.67.28-1.35.43-2s.33-1.34.51-2,.41-1.08.62-1.61c.44-1,.83-2.15,1.35-3.11l1.61-2.84a28.53,28.53,0,0,1,1.79-2.58,44.64,44.64,0,0,1,3.9-4.62,74.18,74.18,0,0,1,17.61-13c12.24-6.76,24.88-11.09,37.5-14.62,25.26-7,50.54-10.1,74.94-11.72a564.61,564.61,0,0,1,70.25.15q16.74,1,32.34,2.9c10.41,1.18,20.42,2.64,30,4.3s18.66,3.59,27.26,5.59,16.66,4.33,24.16,6.69c15,4.78,27.67,10.24,37.24,16.24a67.15,67.15,0,0,1,11.91,9.17,35.87,35.87,0,0,1,6.58,8.92,22.88,22.88,0,0,1,1.93,6.59Zm0,0-.2-2.35a22.76,22.76,0,0,0-2-6.56A35.7,35.7,0,0,0,577.7,297a61.37,61.37,0,0,0-12-9,126,126,0,0,0-16.7-8.19,198.17,198.17,0,0,0-20.78-7,319.11,319.11,0,0,0-51.59-9.6c-9.56-1.06-19.54-1.88-29.89-2.4s-21.07-.62-32-.47a586.59,586.59,0,0,0-68.78,4.87c-11.82,1.51-23.77,3.46-35.7,6a355.37,355.37,0,0,0-35.57,9.09c-5.86,1.8-11.59,3.93-17.21,6.21a123,123,0,0,0-16.11,7.77c-5,3-9.75,6.22-13.21,9.89a26,26,0,0,0-2.3,2.76,12.27,12.27,0,0,0-1,1.38q-.37.69-.77,1.36c-.26.45-.34.89-.55,1.32l-.27.63a1.55,1.55,0,0,1-.19.66c0,.06-.06.1-.1.17l0,.6-.19,2.41c.07-1.45,0-.31.05-.6l0,.15,0,.3,0,.61a5.26,5.26,0,0,0,.25,1.24l.12.63c.08.21.19.43.27.65.2.43.29.88.55,1.33s.52.9.77,1.36a12.32,12.32,0,0,0,1,1.38,25.68,25.68,0,0,0,2.3,2.76c.86.91,1.86,1.79,2.81,2.68s2.07,1.73,3.22,2.54a79.48,79.48,0,0,0,7.17,4.69A123.94,123.94,0,0,0,257.47,343c5.61,2.31,11.35,4.41,17.21,6.22a355.13,355.13,0,0,0,35.57,9.11c11.93,2.51,23.88,4.46,35.7,6s23.52,2.72,35,3.51l8.54.53,8.55.4c5.59.21,11.19.39,16.67.44,11,.13,21.7,0,32-.49s20.33-1.35,29.89-2.41a319.31,319.31,0,0,0,51.59-9.62,197.5,197.5,0,0,0,20.78-7,126,126,0,0,0,16.7-8.19,61.46,61.46,0,0,0,12-9,35.7,35.7,0,0,0,6.63-8.84,22.78,22.78,0,0,0,2-6.56Z" transform="translate(-12.46 -144.27)"/><path class="cls-1" d="M205.54,326.5c-.2,6.77-.06,13.54.26,20.28s.83,13.48,1.55,20.18A337.25,337.25,0,0,0,214,406.71a266.69,266.69,0,0,0,11.9,38.21A196.42,196.42,0,0,0,244,480.15,186,186,0,0,0,255.6,496,160.57,160.57,0,0,0,269,510.28a141.25,141.25,0,0,0,15.07,12.35c2.61,1.93,5.37,3.65,8.08,5.42s5.56,3.35,8.45,4.81,5.78,2.94,8.69,4.37c3,1.27,5.92,2.67,9,3.77a171.31,171.31,0,0,0,18.56,6c3.17.75,6.31,1.62,9.53,2.21l4.8,1L356,551c3.21.58,6.49.88,9.73,1.31s6.53.58,9.8.88l.27,0,.37.05c1.62.23,3.63.45,5.49.61s3.8.33,5.72.46q5.75.38,11.54.43a217.21,217.21,0,0,0,23.09-1A186.4,186.4,0,0,0,466.78,544a164.53,164.53,0,0,0,20.79-9.16,136.69,136.69,0,0,0,19-12.25,128.72,128.72,0,0,0,30.09-33.38,158.63,158.63,0,0,0,10.57-20.14,170.11,170.11,0,0,0,7.69-21.62,215.2,215.2,0,0,0,5.1-22.57c1.47-8.24,3.28-16.06,5.37-24s4.53-15.68,7.4-23.37a170.59,170.59,0,0,1,10.19-22.64c4.06-7.32,8.83-14.5,15.39-20.61a40.78,40.78,0,0,1,11.48-7.66A31,31,0,0,1,624,324.06l.29,0,.13,0a33.41,33.41,0,0,1,3.37.7c1,.27,2.06.56,3.08.89a57.44,57.44,0,0,1,5.92,2.27,52.74,52.74,0,0,1,10.92,6.54,45.11,45.11,0,0,1,8.91,9.26,43.56,43.56,0,0,1,5.83,11.4,50.32,50.32,0,0,1,2.49,12.3,63.62,63.62,0,0,1-.22,12.25A102.92,102.92,0,0,1,659,402.9l-.1.27,0,.08a58.06,58.06,0,0,1-3.15,5.29c-1.1,1.67-2.27,3.28-3.46,4.87a106.38,106.38,0,0,1-7.72,9q-2,2.14-4.22,4.13t-4.44,3.88c-1.5,1.27-3.06,2.46-4.62,3.65s-3.17,2.3-4.81,3.37-3.29,2.11-5,3.13-3.38,2-5.11,2.85-3.48,1.76-5.24,2.6-3.56,1.58-5.36,2.29c-3.61,1.43-7.28,2.71-11,3.77-1.84.59-3.74,1-5.6,1.49s-3.77.81-5.66,1.22c1.84-.57,3.69-1.1,5.52-1.71s3.65-1.2,5.43-1.93c3.6-1.34,7.11-2.89,10.54-4.57,1.72-.83,3.4-1.75,5.07-2.65s3.33-1.86,4.93-2.89,3.2-2,4.78-3.1,3.11-2.18,4.6-3.36,3-2.36,4.42-3.57,2.85-2.49,4.2-3.81,2.71-2.63,4-4,2.55-2.77,3.78-4.2a100.33,100.33,0,0,0,6.84-8.92c1-1.55,2-3.12,3-4.72a53.59,53.59,0,0,0,2.51-4.77l-.13.34a96,96,0,0,0,4-21.83c.4-7.27-.31-14.51-2.85-20.94a34.71,34.71,0,0,0-12.4-15.85,42.79,42.79,0,0,0-9.06-4.88,46.88,46.88,0,0,0-4.92-1.64c-.83-.23-1.67-.43-2.5-.6s-1.75-.34-2.29-.4l.42,0c-6.31-.24-12.26,2.85-17.26,7.78s-9.09,11.28-12.54,18a158.24,158.24,0,0,0-8.82,21.24c-2.49,7.33-4.61,14.83-6.5,22.4s-3.5,15.31-4.7,22.8a229.34,229.34,0,0,1-5,24.19,184.6,184.6,0,0,1-7.86,23.6,153.06,153.06,0,0,1-11.37,22.34A144,144,0,0,1,516,534.72a152.13,152.13,0,0,1-21.09,13.82,157.23,157.23,0,0,1-23,10.13,201.92,201.92,0,0,1-48.57,10.26,232.28,232.28,0,0,1-24.71.9q-6.18-.09-12.37-.54c-2.06-.15-4.13-.32-6.2-.55s-4.06-.48-6.39-.86l.63.08c-3.47-.39-6.94-.68-10.4-1.15s-6.92-.92-10.36-1.61l-5.16-.94-5.13-1.14c-3.43-.7-6.8-1.7-10.2-2.58a184.52,184.52,0,0,1-19.92-6.91c-3.28-1.27-6.45-2.84-9.65-4.29-3.13-1.62-6.31-3.14-9.34-5s-6-3.66-9-5.55-5.81-4-8.58-6.18a153.71,153.71,0,0,1-15.85-13.92,172.11,172.11,0,0,1-13.86-15.8,165.82,165.82,0,0,1-11.69-17.36A205.59,205.59,0,0,1,218,447.83a248.26,248.26,0,0,1-10-39.92q-1.71-10.12-2.73-20.31T204,367.19c-.23-6.8-.24-13.61,0-20.4S204.67,333.23,205.54,326.5Z" transform="translate(-12.46 -144.27)"/><path class="cls-1" d="M600.81,320l.81-.53c.54-.36,1.33-.88,2.42-1.49a65.5,65.5,0,0,1,9.85-4.68,69.6,69.6,0,0,1,16.79-4,67.07,67.07,0,0,1,23,1.38,59.36,59.36,0,0,1,12.81,4.6,55.2,55.2,0,0,1,12.42,8.29,57.28,57.28,0,0,1,17.19,27.54,77.46,77.46,0,0,1,1.86,8.3,79.11,79.11,0,0,1,.82,8.47,90.17,90.17,0,0,1-.88,16.93,118.06,118.06,0,0,1-3.62,16.42l-.3,1-.15.5-.24.71-.08.23-.67,1.83c-.41,1.16-1,2.58-1.55,4-1.13,2.75-2.29,5.25-3.57,7.81a126.73,126.73,0,0,1-19,27.49A163.05,163.05,0,0,1,645.16,466a205.51,205.51,0,0,1-24.63,15.68,235.34,235.34,0,0,1-23.41,11.06,244.79,244.79,0,0,1-36.57,11.72c-9,2.07-14.26,2.7-14.26,2.7l3.45-1.54c2.25-1,5.51-2.53,9.63-4.51,8.22-4,19.85-9.83,33.12-17.7,6.63-3.95,13.68-8.38,20.84-13.4a242.54,242.54,0,0,0,21.48-16.8,173.38,173.38,0,0,0,19.94-20.47,122.58,122.58,0,0,0,15.56-24.15c1-2.11,2-4.37,2.87-6.45.41-1,.83-2,1.27-3.34l.65-1.84.08-.23,0-.11c-.3.91-.07.19-.13.36l.12-.43.25-.87a119.9,119.9,0,0,0,3.17-13.84,88.74,88.74,0,0,0,1.11-13.51,63.24,63.24,0,0,0-1.33-12.71,49.5,49.5,0,0,0-4-11.33,41,41,0,0,0-3-5,38.7,38.7,0,0,0-3.53-4.49,48.09,48.09,0,0,0-8.46-7.33,56,56,0,0,0-9.54-5.14,67.75,67.75,0,0,0-19.15-4.79,80.23,80.23,0,0,0-15.86-.06,86.75,86.75,0,0,0-10.39,1.59C602.11,319.64,600.81,320,600.81,320Z" transform="translate(-12.46 -144.27)"/><path class="cls-1" d="M667.54,612.71H664c-2.33-.09-5.79-.31-10.09-.7a50.12,50.12,0,0,0-15.27.73c-1.46.36-3,.67-4.49,1.16l-2.27.69-2.32.82c-1.57.53-3.14,1.23-4.77,1.86s-3.25,1.4-4.88,2.24c-3.31,1.58-6.59,3.45-10,5.51a82.62,82.62,0,0,0-10,6.7c-3.11,2.51-5.94,5.55-7.19,9a11.09,11.09,0,0,0-.64,2.57c0,.53-.18,1.21-.16,1.61s0,.86,0,1.34a15.93,15.93,0,0,0,1.2,5.65,17.64,17.64,0,0,0,8,8.65,11.84,11.84,0,0,0,1.38.68l.58.26.85.3,1.71.61a11.39,11.39,0,0,0,1.64.51c1.06.24,2,.6,3.15.78s2.21.45,3.34.56c9,1.17,18.55-.49,27.58-3.57a115,115,0,0,0,13.35-5.45l1.62-.8.81-.4.2-.1c.13-.07-.07,0,0,0l.1-.06.41-.22c1-.6,2.25-1.19,3.13-1.8,1.87-1.16,3.83-2.53,5.69-4a102.94,102.94,0,0,0,10.51-9.25l1.18-1.24.59-.62.15-.15c-.23.29,0,0-.06.07l.07-.09.28-.35.56-.7.27-.34.15-.27a12.24,12.24,0,0,0,.62-1.08,10.4,10.4,0,0,0,1.16-5.2,6.79,6.79,0,0,0-1.7-4.32,6.57,6.57,0,0,0-4.14-1.93l-.64-.09c-.22,0-.45,0-.67,0-.41,0-1,0-1.26,0-1.06.18-2.27.29-3.18.52a24.73,24.73,0,0,0-5.41,1.88,36.32,36.32,0,0,0-9.39,6.78c-2.82,2.67-5.42,5.54-8,8.25a73.08,73.08,0,0,1-8.1,7.46,27.23,27.23,0,0,1-4.48,2.7,34.55,34.55,0,0,1-4.54,1.8,49.45,49.45,0,0,1-8.46,1.9c-.34,0-.62.1-1,.14l-.95.09c-.67,0-1.34.06-1.95,0-1.24,0-2.39-.11-3.48-.19-4.34-.39-7.71-.6-10-.11a11,11,0,0,0-2.49.81l-.81.43.76-.51a11.21,11.21,0,0,1,2.45-1.1c2.26-.73,5.79-1,10.12-.93,1.08,0,2.22,0,3.38-.12.59,0,1.15-.11,1.73-.18l.94-.17c.25,0,.6-.14.9-.21a52.76,52.76,0,0,0,7.92-2.44,31.65,31.65,0,0,0,4-2,23.32,23.32,0,0,0,3.81-2.71,76.94,76.94,0,0,0,7.17-7.48c2.41-2.79,4.85-5.84,7.69-8.87A40,40,0,0,1,662.58,620a29.78,29.78,0,0,1,6.72-2.62c1.21-.34,2.2-.45,3.31-.69l.2,0,.25,0h.12l.49,0,1-.07c.33,0,.66-.05,1,0l1,.08a12.26,12.26,0,0,1,8,3.52,13,13,0,0,1,3.6,8.15,16.76,16.76,0,0,1-1.6,8.45,18.27,18.27,0,0,1-1.11,2l-.31.5-.27.37-.54.71-.27.36-.26.34-.16.17-.63.7-1.26,1.4a91.17,91.17,0,0,1-11.12,10.13c-2,1.56-4.06,3-6.37,4.48-1.15.78-2.17,1.27-3.26,1.91l-.4.23-.53.28-.85.42-1.7.85a119.17,119.17,0,0,1-14.15,5.91c-9.74,3.23-20.32,5.07-30.77,3.64a49.19,49.19,0,0,1-7.77-1.72,15.44,15.44,0,0,1-1.81-.62l-1.69-.65-.84-.32-.25-.1-.12-.05-.23-.11-.46-.22a17,17,0,0,1-1.83-1,24.09,24.09,0,0,1-10.54-12.13,22.15,22.15,0,0,1-1.47-7.86c0-.66.06-1.39.09-2.08a17.44,17.44,0,0,1,.23-1.77,17.07,17.07,0,0,1,1.14-3.93c2.12-5,5.81-8.32,9.38-11a80.7,80.7,0,0,1,11-6.66c3.58-1.86,7.16-3.64,10.67-5.07a87,87,0,0,1,10.28-3.64l2.48-.67,2.47-.55c1.64-.4,3.16-.59,4.66-.84a48.71,48.71,0,0,1,16,.54c4.31.75,7.63,1.4,9.94,1.72Z" transform="translate(-12.46 -144.27)"/><path class="cls-1" d="M589.16,647.2l.84.49a12.45,12.45,0,0,0,2.43,1,13.29,13.29,0,0,0,3.94.44,21.59,21.59,0,0,0,5-.88,44.77,44.77,0,0,0,5.73-2.25c2-.93,4-2.09,6.13-3.31s4.23-2.59,6.4-4l3.29-2.15,1.69-1.09,1.6-1.08c1.12-.75,2-1.44,3.06-2.23l3.06-2.41c2-1.63,4.08-3.24,6.15-4.74a58.15,58.15,0,0,1,6.27-4c1.06-.56,2.11-1.09,3.14-1.55s2.08-.84,3.11-1.11a21.85,21.85,0,0,1,5.68-1c.86,0,1.66,0,2.39,0l2,.34a6.27,6.27,0,0,1,1.55.4l1.11.39.91.33-1,0a19.15,19.15,0,0,0-2.68,0l-1.87.16-2.14.44a26.2,26.2,0,0,0-4.84,1.81c-.86.38-1.69,1-2.58,1.43s-1.76,1.12-2.66,1.76q-2.66,2-5.45,4.36l-5.78,5c-1,.86-2,1.73-3.09,2.58s-2.28,1.77-3.36,2.51L627.51,640l-1.68,1c-1.12.71-2.27,1.4-3.41,2.08-2.28,1.37-4.6,2.64-6.91,3.76A44.44,44.44,0,0,1,602,651.27a19.2,19.2,0,0,1-5.81-.09,12.42,12.42,0,0,1-4.21-1.5,10.71,10.71,0,0,1-2.21-1.75Z" transform="translate(-12.46 -144.27)"/><path class="cls-1" d="M591.26,651a8.47,8.47,0,0,0-1,1.36,9.61,9.61,0,0,0-1.24,4.32,15.69,15.69,0,0,0,1.31,6.72,25.42,25.42,0,0,0,4.93,7.35,31.81,31.81,0,0,0,8.39,6.13,35.73,35.73,0,0,0,11,3.32,45.31,45.31,0,0,0,12.45-.11c1.07-.15,2.1-.34,3.22-.56s2.31-.42,3.36-.66c2.17-.44,4.38-1,6.54-1.57A94.84,94.84,0,0,0,652.92,673a76.16,76.16,0,0,0,11.36-6,63.57,63.57,0,0,0,9.44-7.41,56.66,56.66,0,0,0,7-8.2,45.71,45.71,0,0,0,4.46-8,31.34,31.34,0,0,0,2-6.82,14.3,14.3,0,0,0,.11-4.6,5.26,5.26,0,0,0-.47-1.59l.26.35a6.29,6.29,0,0,1,.6,1.13,13.53,13.53,0,0,1,.9,4.8,35.21,35.21,0,0,1-4.43,16.83,49.6,49.6,0,0,1-6.65,9.73,59.61,59.61,0,0,1-9.69,8.95,77.56,77.56,0,0,1-25.68,12.12c-2.33.66-4.66,1.18-7,1.66-1.21.25-2.32.43-3.47.64s-2.41.38-3.61.52a46.89,46.89,0,0,1-14.4-.48A37.2,37.2,0,0,1,601,681.61a31.5,31.5,0,0,1-8.93-8.18,25.17,25.17,0,0,1-4.38-9.18,16.08,16.08,0,0,1-.08-7.8,9.68,9.68,0,0,1,2.34-4.34,7,7,0,0,1,1-.85Z" transform="translate(-12.46 -144.27)"/><path class="cls-1" d="M777.57,573.17l-2.64-1.48c-1.68-1-4.14-2.62-7.15-4.7a41.66,41.66,0,0,0-11.54-5.76l-3.84-1c-.66-.16-1.33-.36-2-.5l-2-.3-4.22-.64-4.53-.34c-1.54-.16-3.12-.14-4.73-.15s-3.23,0-4.94,0a70.1,70.1,0,0,0-10.16.79c-3.34.56-6.68,1.63-9,3.64a9.44,9.44,0,0,0-1.54,1.63c-.25.37-.63.82-.78,1.12s-.39.61-.56,1a13.47,13.47,0,0,0-1.45,4.66,14.92,14.92,0,0,0,2.28,9.67,10.14,10.14,0,0,0,.74,1.07l.32.43.5.58,1,1.15a9.91,9.91,0,0,0,1,1.06,39.15,39.15,0,0,0,4.23,3.68c6.17,4.6,13.88,7.33,21.82,8.79a97.13,97.13,0,0,0,12.11,1.51l1.53.08.76,0h.59l3.13-.08a40.41,40.41,0,0,0,5.92-.55,51,51,0,0,0,5.79-1c1-.21,1.95-.36,2.89-.61l2.81-.8,1.4-.4.7-.2.17-.05-.07,0,.09,0,.35-.14.7-.29.34-.14.22-.13c.29-.2.59-.29.9-.54a8.8,8.8,0,0,0,3-3.35,5.77,5.77,0,0,0,.53-3.89,5.55,5.55,0,0,0-2.26-3.13,4,4,0,0,0-.93-.6c-.31-.15-.74-.41-.94-.49-.85-.3-1.8-.73-2.56-.93a21,21,0,0,0-4.77-.86A30.68,30.68,0,0,0,761,582.1c-3.19.8-6.29,1.84-9.35,2.75a62.24,62.24,0,0,1-9.06,2.14,23.08,23.08,0,0,1-4.43.13,29.37,29.37,0,0,1-4.09-.55,41.62,41.62,0,0,1-7-2.11c-.27-.11-.5-.18-.81-.31l-.74-.33c-.5-.26-1-.51-1.45-.78-.91-.52-1.72-1.07-2.49-1.58-3-2.09-5.43-3.64-7.31-4.22a9.11,9.11,0,0,0-2.18-.43l-.77,0,.77-.07a9.4,9.4,0,0,1,2.26.2,30.21,30.21,0,0,1,7.85,3.51c.8.44,1.65.9,2.54,1.31.45.22.9.39,1.35.58l.76.26c.2.07.5.15.75.22a44.35,44.35,0,0,0,6.85,1.48,26.67,26.67,0,0,0,3.78.23,19.59,19.59,0,0,0,3.93-.42,64.87,64.87,0,0,0,8.39-2.55c2.93-1.06,6-2.3,9.35-3.35a33.84,33.84,0,0,1,11-1.72,25.33,25.33,0,0,1,6,.86c1,.25,1.81.58,2.73.87a16.91,16.91,0,0,1,1.6.71,7.73,7.73,0,0,1,1.49.86,10.37,10.37,0,0,1,4.41,5.89,11,11,0,0,1-.72,7.5,14.17,14.17,0,0,1-4.68,5.57,15.38,15.38,0,0,1-1.66,1,12.82,12.82,0,0,1-1.48.71l-.35.15-.34.14-.19.06-.75.24-1.51.47-3,1c-1,.3-2.06.49-3.09.74a55.44,55.44,0,0,1-6.36,1.19,47.84,47.84,0,0,1-6.47.64l-3.13.11h-1l-.8,0-1.61-.08a100.67,100.67,0,0,1-12.88-1.5c-8.52-1.66-17.09-4.68-24.2-10.07a41.61,41.61,0,0,1-5-4.49c-.85-.83-1.36-1.59-2.05-2.38l-.49-.59-.14-.17-.06-.09-.13-.18-.25-.36a14.85,14.85,0,0,1-.95-1.46,20.37,20.37,0,0,1-2.75-13.31,18.77,18.77,0,0,1,2.18-6.41c.26-.5.62-1,.93-1.5a14.7,14.7,0,0,1,.91-1.21,14.44,14.44,0,0,1,2.47-2.43c3.62-2.77,7.73-3.73,11.48-4.23a68.09,68.09,0,0,1,10.84-.37c1.69,0,3.41.18,5.07.27s3.3.18,4.9.44l4.67.62,4.46,1,2.14.49c.68.19,1.32.44,2,.65l3.76,1.27a40.44,40.44,0,0,1,11.58,7c2.87,2.34,5,4.2,6.62,5.39Z" transform="translate(-12.46 -144.27)"/><path class="cls-1" d="M705.47,566.14l.41.71a10.77,10.77,0,0,0,1.38,1.75,13.81,13.81,0,0,0,6.81,3.39,38,38,0,0,0,5.16.71c1.86.14,3.84.12,5.89.12s4.19-.19,6.38-.29l3.32-.21,1.7-.11,1.62-.14c1.14-.09,2.08-.21,3.19-.36s2.16-.33,3.26-.51c2.17-.39,4.36-.67,6.5-.94a46.06,46.06,0,0,1,6.28-.38c1,0,2,.07,3,.15s1.88.24,2.75.47a18.38,18.38,0,0,1,4.59,1.64c.63.37,1.23.67,1.74,1l1.33,1.07a5.2,5.2,0,0,1,1,.94l.65.75.54.62-.7-.43a17,17,0,0,0-2-1.13l-1.44-.66-1.76-.56a22.17,22.17,0,0,0-4.32-.67,35.63,35.63,0,0,0-5.19.18c-1.85.23-3.79.55-5.83.94s-4.14.91-6.34,1.31c-1.1.22-2.22.42-3.35.61s-2.41.38-3.52.47l-1.75.11-1.67.07-3.37.13c-2.25.09-4.48,0-6.65-.09a36.92,36.92,0,0,1-11.76-2.35A16.2,16.2,0,0,1,709,572a10.53,10.53,0,0,1-2.48-2.85,8.69,8.69,0,0,1-.9-2.21Z" transform="translate(-12.46 -144.27)"/><path class="cls-1" d="M705.44,569.81a7.22,7.22,0,0,0-1.27.6,8.14,8.14,0,0,0-2.71,2.67,13.29,13.29,0,0,0-1.82,5.5,21.46,21.46,0,0,0,.59,7.47,27,27,0,0,0,3.64,8,31.09,31.09,0,0,0,6.76,7,39.83,39.83,0,0,0,9.24,5.08c.85.34,1.69.63,2.6.93s1.88.64,2.75.9c1.78.57,3.65,1.06,5.48,1.53a80.15,80.15,0,0,0,11.12,2,61.48,61.48,0,0,0,10.87.28,55.5,55.5,0,0,0,10-1.57,48,48,0,0,0,8.57-3.14,32.28,32.28,0,0,0,10.95-8.25,12.09,12.09,0,0,0,2-3.34,4.47,4.47,0,0,0,.31-1.37,4,4,0,0,1,0,1.44,11.43,11.43,0,0,1-1.33,3.91A29.81,29.81,0,0,1,773,610.09a41.93,41.93,0,0,1-8.94,4.42,49.09,49.09,0,0,1-10.85,2.57,61.23,61.23,0,0,1-11.9.28,71.89,71.89,0,0,1-12.06-2c-2-.48-3.92-1.07-5.88-1.72-1-.32-1.89-.65-2.82-1s-1.94-.7-2.88-1.1a38.6,38.6,0,0,1-10.42-6.32,30.91,30.91,0,0,1-7.29-8.86,26.59,26.59,0,0,1-3.2-9.73,21.21,21.21,0,0,1,.58-8.58,13.56,13.56,0,0,1,3.17-5.79,8.17,8.17,0,0,1,3.53-2.23,5.87,5.87,0,0,1,1.05-.23Z" transform="translate(-12.46 -144.27)"/><path class="cls-1" d="M88.26,591.17l-2.11-1.83c-1.33-1.25-3.26-3.14-5.59-5.6a37.19,37.19,0,0,0-9.37-7.39l-3.3-1.6c-.57-.27-1.14-.57-1.73-.82l-1.8-.65-3.71-1.37-4-1.15c-1.36-.43-2.8-.71-4.26-1s-2.92-.64-4.48-.9a65,65,0,0,0-9.35-1.17,17.35,17.35,0,0,0-8.85,1.61,5.48,5.48,0,0,0-.89.56l-.42.31-.11.08-.05,0c.3-.27,0,0,.1-.09l-.24.24c-.6.62-1.33,1.26-1.83,1.87s-.77,1.11-1.14,1.73-.66,1.37-.91,2.08a13.77,13.77,0,0,0,.28,9.18l.46,1.11.19.46.35.62c.47.78.92,1.74,1.41,2.38A36.37,36.37,0,0,0,30,594c4.73,5.32,11.21,9.22,18.12,12a89.15,89.15,0,0,0,10.68,3.62l1.37.36.68.18.17,0-.08,0,.09,0,.36.06,2.85.51a37.24,37.24,0,0,0,5.46.6,47.13,47.13,0,0,0,5.43.14c.91,0,1.83,0,2.74,0l2.69-.2,1.34-.1.67,0h.08s.21,0-.08,0l.17,0,.34-.06a7.83,7.83,0,0,0,1.24-.28c.3-.13.59-.15.92-.32A8.17,8.17,0,0,0,88.64,608a4.87,4.87,0,0,0-.26-6.68,3.81,3.81,0,0,0-.74-.71c-.25-.2-.59-.51-.77-.62-.72-.44-1.49-1-2.15-1.32A19.4,19.4,0,0,0,80.57,597a28.39,28.39,0,0,0-9-.81c-3,.13-6,.49-9,.75a56.25,56.25,0,0,1-8.61.25,21.26,21.26,0,0,1-4-.72,27,27,0,0,1-3.6-1.27,40.73,40.73,0,0,1-6-3.22c-.44-.27-.9-.59-1.28-.86s-.82-.65-1.17-1c-.73-.64-1.36-1.28-2-1.89-2.38-2.44-4.25-4.3-5.84-5.18a8.46,8.46,0,0,0-1.89-.8l-.69-.16.71.09a8.7,8.7,0,0,1,2,.6,27.26,27.26,0,0,1,6.45,4.65c.65.55,1.32,1.13,2.05,1.67.37.29.74.52,1.12.79s.83.5,1.28.72a38.8,38.8,0,0,0,5.93,2.62,24.9,24.9,0,0,0,3.39.9,18.41,18.41,0,0,0,3.64.34,61,61,0,0,0,8.07-.75c2.85-.42,5.86-1,9.09-1.29a31.3,31.3,0,0,1,10.3.5,23.31,23.31,0,0,1,5.31,1.9c.89.42,1.53.86,2.31,1.29a15.77,15.77,0,0,1,1.32.94,7.15,7.15,0,0,1,1.19,1.06,9.59,9.59,0,0,1,2.9,6.16,10.17,10.17,0,0,1-2,6.66,13.11,13.11,0,0,1-5.27,4.17,13.66,13.66,0,0,1-1.69.62,11,11,0,0,1-1.47.37l-.34.07-.17,0-.25,0H83.3l-.73.08-1.45.15-2.93.29c-1,.08-2,.06-2.93.09a51.29,51.29,0,0,1-6-.11,44.71,44.71,0,0,1-6-.62l-2.85-.49-.36-.06-.35-.07-.18,0-.72-.18-1.44-.37A93.24,93.24,0,0,1,46,611.16c-7.41-3.09-14.6-7.43-20-13.63a38.34,38.34,0,0,1-3.71-5c-.61-.91-.94-1.69-1.42-2.54l-.33-.62-.09-.18,0-.09-.08-.19-.15-.38L19.59,587a18.83,18.83,0,0,1,0-12.57c.37-1,.89-1.92,1.34-2.86s1.29-1.81,2-2.68,1.3-1.26,2-1.89l.24-.22.22-.2.08-.06.17-.11.66-.45a9.39,9.39,0,0,1,1.37-.78,21.57,21.57,0,0,1,11.19-1.69,63.11,63.11,0,0,1,9.88,1.68c1.52.34,3.06.8,4.54,1.19s3,.78,4.35,1.31l4.12,1.44c1.33.57,2.61,1.15,3.86,1.72l1.84.85c.58.31,1.11.65,1.66,1l3.16,1.86A38.56,38.56,0,0,1,81.36,583c2.18,2.64,3.8,4.74,5,6.11Z" transform="translate(-12.46 -144.27)"/><path class="cls-1" d="M24.27,571.36l.28.71.33.85a6.63,6.63,0,0,0,.61,1,4.65,4.65,0,0,0,.87,1.12,8.1,8.1,0,0,0,1.21,1.15,9.6,9.6,0,0,0,1.56,1.08,13.48,13.48,0,0,0,1.87,1,32.32,32.32,0,0,0,4.52,1.62c1.66.46,3.45.84,5.32,1.2s3.83.6,5.83.93l3,.43,1.56.22,1.49.17c2,.23,3.92.34,6,.4s4.07.2,6.06.36a42.52,42.52,0,0,1,5.76.83c.91.21,1.8.44,2.65.69s1.66.57,2.4.94a17,17,0,0,1,3.85,2.34c.5.45,1,.84,1.39,1.25l1,1.22A11.06,11.06,0,0,1,83,592.69l.37.66-.55-.52a15.42,15.42,0,0,0-1.57-1.39l-1.18-.87-1.49-.84a20.74,20.74,0,0,0-3.78-1.42,33.18,33.18,0,0,0-4.73-.8c-1.72-.14-3.53-.21-5.45-.23s-3.92.05-6,0-4.25-.08-6.42-.3l-1.61-.22-1.53-.25L46,586c-2.05-.35-4.06-.81-6-1.33a41.22,41.22,0,0,1-5.53-1.85,24.75,24.75,0,0,1-4.68-2.49,12.79,12.79,0,0,1-1.89-1.46,11.46,11.46,0,0,1-1.49-1.57,7.74,7.74,0,0,1-1.06-1.58,5.58,5.58,0,0,1-.64-1.49,6,6,0,0,1-.39-2.13Z" transform="translate(-12.46 -144.27)"/><path class="cls-1" d="M23.56,574.68a6.64,6.64,0,0,0-1.27.31,7.53,7.53,0,0,0-3,1.92,12.27,12.27,0,0,0-2.67,4.64,19.86,19.86,0,0,0-.86,6.87,24.89,24.89,0,0,0,1.81,7.92,28.73,28.73,0,0,0,4.8,7.64,36.76,36.76,0,0,0,7.42,6.32c.71.46,1.41.89,2.18,1.33s1.58.93,2.33,1.33c1.51.85,3.11,1.63,4.68,2.41a67,67,0,0,0,9.69,3.9,58.19,58.19,0,0,0,9.8,2.27,51.26,51.26,0,0,0,9.38.45,44.41,44.41,0,0,0,8.35-1.24,29.86,29.86,0,0,0,11.45-5.43,11.18,11.18,0,0,0,2.42-2.66,4.14,4.14,0,0,0,.54-1.18,3.78,3.78,0,0,1-.25,1.31,10.57,10.57,0,0,1-1.93,3.29,27.54,27.54,0,0,1-11.25,7.67,38.86,38.86,0,0,1-8.92,2.34,45.43,45.43,0,0,1-10.31.3,55.68,55.68,0,0,1-10.83-2,72.46,72.46,0,0,1-10.56-4c-1.72-.79-3.35-1.7-5-2.65-.85-.48-1.59-.94-2.37-1.41s-1.62-1-2.41-1.53a35.74,35.74,0,0,1-8.25-7.67,28.6,28.6,0,0,1-5-9.38,24.61,24.61,0,0,1-1.08-9.41,19.68,19.68,0,0,1,2.12-7.67,12.57,12.57,0,0,1,4-4.65,7.53,7.53,0,0,1,3.61-1.36A5.35,5.35,0,0,1,23.56,574.68Z" transform="translate(-12.46 -144.27)"/><path class="cls-1" d="M385.16,146A65.95,65.95,0,0,1,457.4,177.7a64.36,64.36,0,0,1,8.07,38.85c-1.56,11.55-6.84,22.21-13.15,31.87-5.62,8.52-12.28,16.26-18.75,24.13-11,13.32-22.29,26.46-33.54,39.59-13-13.86-25.79-27.86-38.22-42.19-8.33-9.6-16.42-19.67-21.59-31.38a68.73,68.73,0,0,1-5.44-37.79A65.79,65.79,0,0,1,385.16,146m11.7,33.26a32.35,32.35,0,1,0,19.39,4.21A32.38,32.38,0,0,0,396.85,179.21Z" transform="translate(-12.46 -144.27)"/></svg>